<svg viewBox="0 0 77 64" xmlns="http://www.w3.org/2000/svg" xmlns:xlink="http://www.w3.org/1999/xlink" width="77.000000" height="64.000000" fill="none" customFrame="#000000">
	<defs>
		<clipPath id="clipPath_0">
			<rect width="64.000000" height="64.000000" x="13.000000" y="0.000000" fill="rgb(255,255,255)" />
		</clipPath>
		<clipPath id="clipPath_1">
			<rect width="64.000000" height="64.000000" x="0.000000" y="0.000000" fill="rgb(255,255,255)" transform="matrix(-1,0,0,1,64,0)" />
		</clipPath>
	</defs>
	<g id="Сочетание 1">
		<g id="wrench-svgrepo-com 1" clip-path="url(#clipPath_0)" customFrame="url(#clipPath_0)">
			<rect id="wrench-svgrepo-com 1" width="64.000000" height="64.000000" x="13.000000" y="0.000000" />
			<path id="Форма 3" d="M51.5263 17.9851C51.4082 18.4318 51.4082 18.9015 51.5263 19.3483C51.6444 19.795 51.8765 20.2034 52.2 20.5333L56.4667 24.8C56.7966 25.1235 57.205 25.3556 57.6517 25.4737C58.0985 25.5918 58.5682 25.5918 59.0149 25.4737C59.4616 25.3556 59.87 25.1235 60.2 24.8L70.2533 14.7467C71.5942 17.7098 72.0002 21.0113 71.4172 24.2111C70.8342 27.4108 69.2899 30.3569 66.9901 32.6567C64.6902 34.9566 61.7441 36.5009 58.5444 37.0839C55.3446 37.6669 52.0432 37.2609 49.08 35.92L30.6533 54.3467C29.8086 55.1914 28.7182 55.747 27.5383 55.9339C26.3584 56.1208 25.1496 55.9293 24.0852 55.387C23.0208 54.8446 22.1554 53.9792 21.613 52.9148C21.0707 51.8504 20.8792 50.6416 21.0661 49.4617C21.253 48.2818 21.8086 47.1914 22.6533 46.3467L41.08 27.92C39.7391 24.9568 39.3331 21.6554 39.9161 18.4556C40.4991 15.2559 42.0434 12.3098 44.3433 10.0099C46.6431 7.7101 49.5892 6.16579 52.7889 5.58278C55.9887 4.99978 59.2902 5.40578 62.2533 6.74667L52.2267 16.7733L52.2 16.8C51.8765 17.13 51.6444 17.5384 51.5263 17.9851Z" fill-rule="nonzero" stroke="rgb(0,0,0)" stroke-linecap="round" stroke-linejoin="round" stroke-width="2.000000" />
		</g>
		<g id="wrench-svgrepo-com 2" clip-path="url(#clipPath_1)" customFrame="url(#clipPath_1)">
			<rect id="wrench-svgrepo-com 2" width="64.000000" height="64.000000" x="0.000000" y="0.000000" transform="matrix(-1,0,0,1,64,0)" />
			<path id="Форма 3" d="M17.5035 25.1764L20.0835 22.5964C18.7426 19.6332 18.3366 16.3318 18.9196 13.132C19.5026 9.93223 21.047 6.98613 23.3468 4.6863C25.6466 2.38648 28.5927 0.842163 31.7925 0.259157C34.9922 -0.323847 38.2937 0.0821515 41.2569 1.42305L31.2302 11.4497L31.2035 11.4764C30.8801 11.8064 30.6479 12.2147 30.5298 12.6615C30.4117 13.1082 30.4117 13.5779 30.5298 14.0246C30.6479 14.4714 30.8801 14.8797 31.2035 15.2097L35.4702 19.4764C35.8002 19.7998 36.2085 20.032 36.6553 20.1501C37.102 20.2682 37.5717 20.2682 38.0185 20.1501C38.4652 20.032 38.8735 19.7998 39.2035 19.4764L49.2569 9.42305C50.5978 12.3862 51.0038 15.6877 50.4207 18.8874C49.8377 22.0872 48.2934 25.0333 45.9936 27.3331C43.6938 29.6329 40.7477 31.1773 37.5479 31.7603C34.3481 32.3433 31.0467 31.9373 28.0835 30.5964L25.5035 33.1764M9.65686 49.023C8.81214 49.8678 7.72169 50.4234 6.54179 50.6103C5.36188 50.7971 4.15311 50.6057 3.0887 50.0633C2.0243 49.521 1.15891 48.6556 0.616565 47.5912C0.0742241 46.5268 -0.117227 45.318 0.0696516 44.1381C0.25653 42.9582 0.812144 41.8678 1.65686 41.023L9.00353 33.6764M9.65686 49.1764L17.1569 41.6764" stroke="rgb(0,0,0)" stroke-linecap="round" stroke-linejoin="round" stroke-width="2.000000" transform="matrix(-1,0,0,1,56.0035,5.32362)" />
		</g>
	</g>
</svg>
